<?xml version="1.0" encoding="utf-8"?>
<!-- Generator: Adobe Illustrator 15.0.0, SVG Export Plug-In . SVG Version: 6.00 Build 0)  -->
<!DOCTYPE svg PUBLIC "-//W3C//DTD SVG 1.1//EN" "http://www.w3.org/Graphics/SVG/1.1/DTD/svg11.dtd">
<svg version="1.1" id="Capa_1" xmlns="http://www.w3.org/2000/svg" xmlns:xlink="http://www.w3.org/1999/xlink" x="0px" y="0px"
	 width="512px" height="512px" viewBox="0 0 512 512" enable-background="new 0 0 512 512" xml:space="preserve">
<g id="advisor">
	<path fill="#50AAB2" d="M434,232.24l-23.44-7.84c-1.642-0.535-3.415-0.507-5.04,0.08l-2.56-15.44
		c15.356-8.494,25.862-23.675,28.4-41.04H440c8.825-0.026,15.974-7.174,16-16v-8c-0.014-7.654-5.445-14.226-12.96-15.68l10.64-10.64
		c1.474-1.526,2.305-3.559,2.32-5.68v-8c-0.035-30.913-25.087-55.965-56-56h-48c-30.913,0.035-55.965,25.087-56,56v8
		c0.016,2.121,0.847,4.154,2.32,5.68l10.64,10.64c-7.515,1.455-12.946,8.026-12.96,15.68v8c0.026,8.826,7.174,15.974,16,16h8.641
		c2.537,17.365,13.043,32.546,28.399,41.04l-2.56,15.44c-1.625-0.587-3.398-0.615-5.041-0.08L318,232.24
		c-35.726,5.01-62.229,35.686-62,71.76v1.2l-48.32-60.4c-1.625-20.728-18.888-36.738-39.68-36.8H88c-4.418,0-8,3.582-8,8
		c0,22.091,17.909,40,40,40h27.68L256,418.4V472c0.04,13.238,10.762,23.961,24,24h208c4.418,0,8-3.582,8-8V304
		C496.229,267.926,469.726,237.25,434,232.24L434,232.24z M440,152h-8v-8h8V152z M320,152h-8v-8h8V152z M320,112v4.72l-8-8V104
		c0-22.091,17.908-40,40-40h48c22.092,0,40,17.909,40,40v4.72l-8,8V112c0.035-3.025-1.679-5.798-4.4-7.12l-32-16
		c-1.699-0.881-3.663-1.109-5.52-0.64l-64,16C322.512,105.123,320.003,108.324,320,112L320,112z M336,160v-41.76l55.04-13.76
		L416,116.96V160c0,22.091-17.908,40-40,40S336,182.091,336,160z M391.439,237.28L376,252.72l-15.439-15.44l3.76-22.56
		c7.693,1.707,15.666,1.707,23.359,0L391.439,237.28z M341.84,241.12l28.48,28.56c3.144,3.12,8.216,3.12,11.359,0l28.48-28.56
		l9.04,3.04L387.92,288h-23.84l-31.28-43.84L341.84,241.12z M390.561,336l8.88,53.28L376,412.72l-23.439-23.439l8.879-53.28H390.561
		z M364.08,320l2.72-16h18.4l2.72,16H364.08z M120,240c-10.165-0.028-19.22-6.428-22.64-16H168c10.165,0.028,19.22,6.428,22.64,16
		H120z M480,480h-32v-80h32V480z M480,384h-40c-4.418,0-8,3.582-8,8v88H280c-4.418,0-8-3.582-8-8v-56
		c0.004-1.57-0.471-3.105-1.359-4.4L166.96,256h29.2l61.6,76.96c2.094,2.687,5.678,3.72,8.881,2.56
		c3.199-1.118,5.346-4.131,5.359-7.52v-24c-0.188-26.627,18.359-49.72,44.4-55.28l35.199,49.2l-15.52,92.8
		c-0.404,2.545,0.428,5.13,2.24,6.96l32,32c3.154,3.094,8.205,3.094,11.359,0l32-32c1.813-1.83,2.645-4.415,2.24-6.96l-15.52-92.8
		l35.199-49.2c26.041,5.56,44.589,28.653,44.4,55.28V384z"/>
	<path fill="#50AAB2" d="M40,192h192c13.255,0,24-10.745,24-24V40c0-13.255-10.745-24-24-24H40c-13.255,0-24,10.745-24,24v128
		C16,181.255,26.745,192,40,192z M32,40c0-4.418,3.582-8,8-8h192c4.418,0,8,3.582,8,8v128c0,4.418-3.582,8-8,8H40
		c-4.418,0-8-3.582-8-8V40z"/>
	<path fill="#50AAB2" d="M48,48h16v16H48V48z"/>
	<path fill="#50AAB2" d="M80,48h144v16H80V48z"/>
	<path fill="#50AAB2" d="M48,112h176v16H48V112z"/>
	<path fill="#50AAB2" d="M48,80h176v16H48V80z"/>
	<path fill="#50AAB2" d="M48,144h176v16H48V144z"/>
	<path fill="#50AAB2" d="M88,392c-17.673,0-32,14.327-32,32s14.327,32,32,32s32-14.327,32-32S105.673,392,88,392z M88,440
		c-8.836,0-16-7.163-16-16s7.164-16,16-16s16,7.163,16,16S96.836,440,88,440z"/>
	<path fill="#50AAB2" d="M153.944,400.24l-5.352-1.336l2.84-4.729c1.889-3.149,1.391-7.181-1.208-9.775L127.6,361.776
		c-2.595-2.6-6.626-3.098-9.776-1.208l-4.728,2.84l-1.336-5.353c-0.892-3.56-4.09-6.056-7.76-6.056H72
		c-3.669,0-6.868,2.496-7.76,6.056l-1.336,5.353l-4.728-2.84c-3.149-1.89-7.181-1.392-9.776,1.208L25.776,384.4
		c-2.599,2.595-3.097,6.626-1.208,9.775l2.84,4.729l-5.352,1.336C18.497,401.132,16,404.33,16,408v32c0,3.67,2.497,6.868,6.056,7.76
		l5.352,1.336l-2.84,4.729c-1.889,3.149-1.391,7.181,1.208,9.775L48.4,486.224c2.595,2.6,6.626,3.098,9.776,1.208l4.728-2.84
		l1.336,5.353c0.892,3.56,4.09,6.056,7.76,6.056h32c3.669,0,6.868-2.496,7.76-6.056l1.336-5.353l4.728,2.84
		c3.149,1.89,7.181,1.392,9.776-1.208l22.624-22.624c2.599-2.595,3.097-6.626,1.208-9.775l-2.84-4.729l5.352-1.336
		c3.56-0.892,6.056-4.09,6.056-7.76v-32C160,404.33,157.503,401.132,153.944,400.24z M144,433.752l-9.768,2.4
		c-4.286,1.074-6.889,5.419-5.814,9.705c0.192,0.766,0.496,1.498,0.902,2.175l5.176,8.632l-13.792,13.792l-8.632-5.176
		c-3.787-2.275-8.702-1.05-10.978,2.737c-0.406,0.676-0.71,1.409-0.902,2.175L97.752,480H78.248l-2.4-9.768
		c-1.075-4.286-5.42-6.89-9.706-5.814c-0.765,0.191-1.498,0.495-2.175,0.902l-8.632,5.176l-13.832-13.792l5.176-8.632
		c2.275-3.787,1.05-8.702-2.737-10.978c-0.677-0.407-1.41-0.711-2.175-0.902L32,433.752v-19.504l9.768-2.4
		c4.286-1.074,6.889-5.419,5.814-9.705c-0.192-0.766-0.496-1.498-0.902-2.175l-5.176-8.632l13.792-13.792l8.632,5.176
		c3.788,2.274,8.702,1.048,10.977-2.74c0.407-0.678,0.711-1.412,0.903-2.18l2.4-9.76h19.504l2.4,9.76
		c1.071,4.287,5.414,6.894,9.7,5.823c0.767-0.191,1.502-0.496,2.18-0.903l8.632-5.176l13.792,13.792l-5.176,8.632
		c-2.276,3.787-1.05,8.702,2.737,10.978c0.677,0.406,1.41,0.711,2.175,0.902l9.768,2.4L144,433.752z"/>
	<path fill="#50AAB2" d="M80,320h16v16H80V320z"/>
	<path fill="#50AAB2" d="M80,264h16v40H80V264z"/>
	<path fill="#50AAB2" d="M176,416h16v16h-16V416z"/>
	<path fill="#50AAB2" d="M208,416h32v16h-32V416z"/>
</g>
</svg>
