<?xml version="1.0" encoding="utf-8"?>
<!-- Generator: Adobe Illustrator 15.0.0, SVG Export Plug-In . SVG Version: 6.00 Build 0)  -->
<!DOCTYPE svg PUBLIC "-//W3C//DTD SVG 1.1//EN" "http://www.w3.org/Graphics/SVG/1.1/DTD/svg11.dtd">
<svg version="1.1" id="Capa_1" xmlns="http://www.w3.org/2000/svg" xmlns:xlink="http://www.w3.org/1999/xlink" x="0px" y="0px"
	 width="512px" height="512px" viewBox="0 0 512 512" enable-background="new 0 0 512 512" xml:space="preserve">
<g>
	<path fill="#50AAB2" d="M256,230.369c8.551,0,16.533-4.606,20.832-12.022c2.077-3.583,0.855-8.172-2.729-10.249
		c-3.582-2.078-8.172-0.857-10.25,2.727c-1.623,2.803-4.633,4.544-7.854,4.544c-3.22,0-6.229-1.741-7.854-4.544
		c-2.077-3.585-6.665-4.806-10.25-2.727c-3.583,2.077-4.805,6.666-2.728,10.249C239.467,225.763,247.449,230.369,256,230.369z"/>
	<path fill="#50AAB2" d="M222.867,188.95c4.142,0,7.5-3.357,7.5-7.5v-8.283c0-4.143-3.358-7.5-7.5-7.5c-4.142,0-7.5,3.357-7.5,7.5
		v8.283C215.367,185.593,218.725,188.95,222.867,188.95z"/>
	<path fill="#50AAB2" d="M289.133,188.95c4.143,0,7.5-3.357,7.5-7.5v-8.283c0-4.143-3.357-7.5-7.5-7.5c-4.142,0-7.5,3.357-7.5,7.5
		v8.283C281.633,185.593,284.991,188.95,289.133,188.95z"/>
	<path fill="#50AAB2" d="M472.5,397.6h-10.2v-75.334v-0.001c-0.001-22.403-18.229-40.632-40.633-40.632h-41.418
		c-8.703,0-15.783,7.08-15.783,15.783v17.35h-10.628c-4.143,0-7.5,3.357-7.5,7.5c0,4.144,3.357,7.5,7.5,7.5H447.3v68.879
		c-9.584,2.966-16.566,11.909-16.566,22.455v75.4c0,0.169,0.02,0.332,0.024,0.5H155.035c-4.142,0-7.5,3.357-7.5,7.5
		s3.358,7.5,7.5,7.5H488.5c12.958,0,23.5-10.542,23.5-23.5v-51.4C512,415.319,494.28,397.6,472.5,397.6L472.5,397.6z
		 M379.466,297.416c0-0.432,0.353-0.783,0.783-0.783h41.418c11.525,0,21.296,7.647,24.511,18.133h-66.712V297.416z M497,488.5
		c0,4.686-3.813,8.5-8.5,8.5h-41.983h-0.282c-0.276,0-0.5-0.225-0.5-0.5v-17.634h25.632c4.142,0,7.5-3.357,7.5-7.5
		c0-4.144-3.358-7.5-7.5-7.5h-25.632v-18.133h25.632c4.142,0,7.5-3.357,7.5-7.5c0-4.144-3.358-7.5-7.5-7.5h-25.632V421.1
		c0-4.687,3.813-8.5,8.5-8.5H472.5c13.509,0,24.5,10.99,24.5,24.5V488.5z"/>
	<path fill="#50AAB2" d="M323.837,329.766c4.142,0,7.5-3.356,7.5-7.5c0-4.143-3.358-7.5-7.5-7.5h-10.638v-38.599
		c18.398-15.092,30.751-37.293,32.82-62.367h9.379c13.271,0,24.067-10.796,24.067-24.066V156.6c0-5.176-1.647-9.972-4.44-13.902
		c2.742-2.841,4.44-6.697,4.44-10.948v-8.283c0-13.271-10.796-24.066-24.067-24.066h-0.782V65.484
		c0-26.974-21.944-48.918-48.917-48.918h-21.492V15.5c0-8.547-6.953-15.5-15.5-15.5H243.29c-8.547,0-15.5,6.953-15.5,15.5v1.065
		h-21.491c-26.973,0-48.918,21.944-48.918,48.918l0.001,33.917H156.6c-13.27,0-24.066,10.796-24.066,24.066v8.283
		c0,4.251,1.697,8.107,4.44,10.948c-2.791,3.93-4.44,8.725-4.44,13.901v33.134c0,13.271,10.796,24.067,24.066,24.067h9.382
		c2.07,25.072,14.42,47.271,32.817,62.363v38.602h-51.265v-17.35c0-8.703-7.08-15.783-15.783-15.783H90.333
		c-22.405,0-40.632,18.227-40.633,40.632v0.001V397.6H39.5C17.72,397.6,0,415.32,0,437.1v51.4C0,501.458,10.542,512,23.5,512
		h101.534c4.142,0,7.5-3.357,7.5-7.5s-3.358-7.5-7.5-7.5H81.241c0.005-0.168,0.025-0.331,0.025-0.5v-75.4
		c0-10.545-6.982-19.489-16.566-22.455v-68.879H323.837z M364.467,189.733c0,4.999-4.066,9.066-9.066,9.066h-9.067v-51.267h9.087
		c4.99,0.011,9.046,4.073,9.046,9.066L364.467,189.733L364.467,189.733z M305.7,31.565c18.702,0,33.917,15.216,33.917,33.918V99.4
		h-18.133v-9.066c0-4.143-3.358-7.5-7.5-7.5c-4.143,0-7.5,3.357-7.5,7.5V99.4h-22.275V31.565H305.7z M242.791,15.5
		c0-0.275,0.224-0.5,0.5-0.5h25.417c0.276,0,0.5,0.225,0.5,0.5v83.9h-26.417V15.5z M172.383,65.483
		c0-18.702,15.215-33.918,33.918-33.918h21.491V99.4h-22.275v-9.066c0-4.143-3.358-7.5-7.5-7.5s-7.5,3.357-7.5,7.5V99.4h-18.132
		L172.383,65.483z M147.534,123.467c0-4.999,4.067-9.066,9.066-9.066h198.8c5,0,9.066,4.067,9.066,9.066v8.283
		c0,0.432-0.352,0.783-0.783,0.783H148.317c-0.432,0-0.783-0.352-0.783-0.783V123.467z M147.534,189.733V156.6
		c0-4.999,4.067-9.066,9.066-9.066h9.067l0.001,51.268H156.6C151.601,198.801,147.534,194.733,147.534,189.733L147.534,189.733z
		 M180.668,206.304l-0.001-58.77h150.666v58.77c0,41.538-33.794,75.332-75.333,75.332S180.668,247.842,180.668,206.304
		L180.668,206.304z M213.799,286.15c12.604,6.688,26.967,10.485,42.202,10.485c15.233,0,29.597-3.796,42.199-10.483v28.613h-84.4
		L213.799,286.15L213.799,286.15z M90.333,296.633h41.418c0.432,0,0.783,0.352,0.783,0.783v17.35H65.822
		C69.037,304.279,78.808,296.633,90.333,296.633z M66.267,430.733H40.635c-4.142,0-7.5,3.356-7.5,7.5c0,4.143,3.358,7.5,7.5,7.5
		h25.632v18.133H40.635c-4.142,0-7.5,3.356-7.5,7.5c0,4.143,3.358,7.5,7.5,7.5h25.632V496.5c0,0.275-0.224,0.5-0.5,0.5h-0.283H23.5
		c-4.687,0-8.5-3.814-8.5-8.5v-51.4c0-13.51,10.991-24.5,24.5-24.5h18.267c4.687,0,8.5,3.813,8.5,8.5V430.733z"/>
</g>
</svg>
