<?xml version="1.0" encoding="utf-8"?>
<!-- Generator: Adobe Illustrator 15.0.0, SVG Export Plug-In . SVG Version: 6.00 Build 0)  -->
<!DOCTYPE svg PUBLIC "-//W3C//DTD SVG 1.1//EN" "http://www.w3.org/Graphics/SVG/1.1/DTD/svg11.dtd">
<svg version="1.1" id="Outline" xmlns="http://www.w3.org/2000/svg" xmlns:xlink="http://www.w3.org/1999/xlink" x="0px" y="0px"
	 width="512px" height="512px" viewBox="0 0 512 512" enable-background="new 0 0 512 512" xml:space="preserve">
<path fill="#50AAB2" d="M491.902,17.017c-2.53-1.414-5.626-1.351-8.096,0.171L456,34.303V24c0-4.418-3.582-8-8-8H336
	c-2.122,0-4.156,0.843-5.657,2.343l-48,48C280.843,67.844,280,69.878,280,72v8H130.264L28.192,17.187
	c-2.469-1.52-5.566-1.584-8.095-0.17C17.567,18.43,16,21.102,16,24v352c0,4.418,3.582,8,8,8h152v40c0,2.122,0.843,4.156,2.343,5.657
	l64,64c1.501,1.5,3.535,2.343,5.657,2.343h112c4.418,0,8-3.582,8-8v-64c0-4.418-3.582-8-8-8h-28.687l-31.999-32H488
	c4.418,0,8-3.582,8-8V24C496,21.102,494.433,18.43,491.902,17.017z M480,38.318V336h-88V123.314L411.313,104H448
	c4.418,0,8-3.582,8-8V53.09L480,38.318z M296,75.313L339.313,32H440v56h-32c-2.122,0-4.156,0.843-5.657,2.343L368,124.687
	L355.313,112l18.344-18.343c3.124-3.125,3.124-8.189,0-11.314l-24-24c-3.125-3.123-8.189-3.123-11.314,0l-24,24
	C312.843,83.844,312,85.878,312,88v24h-16V75.313z M312,272h-32v-32h32V272z M232,272h-16v-32h16V272z M216,224h-48v-16h48V224z
	 M184,240h16v64h-16V240z M328,96h20.686l-10.343,10.343c-1.562,1.563-2.343,3.61-2.343,5.657h-8V96z M339.313,80L344,75.313
	L348.687,80H339.313z M232,224v-16h112v16H232z M344,192h-16v-40v-24h16V192z M312,144h-32v-16h8h24V144z M312,160v32h-32v-32H312z
	 M264,192h-16v-64h16V192z M248,240h16v64h-16V240z M328,240h16v64h-16V240z M280,112h-40c-4.418,0-8,3.582-8,8v72h-72
	c-4.418,0-8,3.582-8,8v32c0,4.418,3.582,8,8,8h8v72c0,4.418,3.582,8,8,8h32c4.418,0,8-3.582,8-8v-24h16v24c0,4.418,3.582,8,8,8h32
	c4.418,0,8-3.582,8-8v-24h32v24c0,4.418,3.582,8,8,8h32c4.418,0,8-3.582,8-8V139.314l2.343,2.343
	c1.563,1.562,3.609,2.343,5.657,2.343s4.095-0.781,5.657-2.343l2.343-2.343V336H136V96h144V112z M32,38.316l88,54.154V336H32V38.316
	z M328,432h24v48H251.313L192,420.687V384h16v24c0,2.122,0.843,4.156,2.343,5.657l40,40c3.125,3.123,8.189,3.123,11.314,0l24-24
	c3.124-3.125,3.124-8.189,0-11.314L267.313,400L280,387.313l42.343,42.344C323.844,431.157,325.878,432,328,432z M250.343,405.657
	L268.687,424L256,436.687l-32-32V384h36.686l-10.343,10.343C247.219,397.468,247.219,402.532,250.343,405.657z M480,368H32v-16h448
	V368z"/>
</svg>
