<?xml version="1.0" encoding="utf-8"?>
<!-- Generator: Adobe Illustrator 15.0.0, SVG Export Plug-In . SVG Version: 6.00 Build 0)  -->
<!DOCTYPE svg PUBLIC "-//W3C//DTD SVG 1.1//EN" "http://www.w3.org/Graphics/SVG/1.1/DTD/svg11.dtd">
<svg version="1.1" id="Capa_1" xmlns="http://www.w3.org/2000/svg" xmlns:xlink="http://www.w3.org/1999/xlink" x="0px" y="0px"
	 width="480px" height="480px" viewBox="0 0 480 480" enable-background="new 0 0 480 480" xml:space="preserve">
<path fill="#50AAB2" d="M135.999,272h16v16h-16V272z"/>
<path fill="#50AAB2" d="M167.999,272h16v16h-16V272z"/>
<path fill="#50AAB2" d="M199.999,272h16v16h-16V272z"/>
<path fill="#50AAB2" d="M135.999,304h16v15.999h-16V304z"/>
<path fill="#50AAB2" d="M167.999,304h16v15.999h-16V304z"/>
<path fill="#50AAB2" d="M199.999,304h16v15.999h-16V304z"/>
<path fill="#50AAB2" d="M231.999,304h16v15.999h-16V304z"/>
<path fill="#50AAB2" d="M263.998,304h16v15.999h-16V304z"/>
<path fill="#50AAB2" d="M135.999,335.999h16v16h-16V335.999z"/>
<path fill="#50AAB2" d="M167.999,335.999h16v16h-16V335.999z"/>
<path fill="#50AAB2" d="M199.999,335.999h16v16h-16V335.999z"/>
<path fill="#50AAB2" d="M231.999,335.999h16v16h-16V335.999z"/>
<path fill="#50AAB2" d="M263.998,335.999h16v16h-16V335.999z"/>
<path fill="#50AAB2" d="M135.999,367.999h16v16h-16V367.999z"/>
<path fill="#50AAB2" d="M167.999,367.999h16v16h-16V367.999z"/>
<path fill="#50AAB2" d="M199.999,367.999h16v16h-16V367.999z"/>
<path fill="#50AAB2" d="M231.999,367.999h16v16h-16V367.999z"/>
<path fill="#50AAB2" d="M263.998,367.999h16v16h-16V367.999z"/>
<path fill="#50AAB2" d="M135.999,399.999h16v16h-16V399.999z"/>
<path fill="#50AAB2" d="M167.999,399.999h16v16h-16V399.999z"/>
<path fill="#50AAB2" d="M199.999,399.999h16v16h-16V399.999z"/>
<path fill="#50AAB2" d="M231.999,399.999h16v16h-16V399.999z"/>
<path fill="#50AAB2" d="M263.998,399.999h16v16h-16V399.999z"/>
<path fill="#50AAB2" d="M135.999,431.999h16v15.999h-16V431.999z"/>
<path fill="#50AAB2" d="M167.999,431.999h16v15.999h-16V431.999z"/>
<path fill="#50AAB2" d="M199.999,431.999h16v15.999h-16V431.999z"/>
<path fill="#50AAB2" d="M231.999,431.999h16v15.999h-16V431.999z"/>
<path fill="#50AAB2" d="M263.998,431.999h16v15.999h-16V431.999z"/>
<path fill="#50AAB2" d="M471.996,24.001h-55.999v-16c0-4.417-3.582-8-8-8h-79.999c-4.418,0-8,3.582-8,8v16H8c-4.418,0-8,3.582-8,8
	v32c0,4.422,3.582,8,8,8h24V224c0,4.422,3.582,8,8,8s8,3.582,8,8c0,4.422-3.582,8-8,8s-8-3.578-8-8H16
	c0.023,5.855,2.199,11.5,6.121,15.852l-20.52,27.352l0.102,0.078C0.633,284.625,0.035,286.285,0,288v31.999
	c0,2.125,0.844,4.156,2.344,5.656l16,16c1.5,1.5,3.535,2.344,5.656,2.344h32c2.121,0,4.156-0.844,5.656-2.344l16-16
	c1.5-1.5,2.344-3.531,2.344-5.656V288c-0.035-1.715-0.633-3.375-1.703-4.719l0.102-0.078l-20.52-27.352
	c5.344-5.938,7.359-14.156,5.371-21.891C61.265,226.227,55.539,220,48,217.371V72.001h271.999v8c0,4.422,3.582,8,8,8h16v375.997h-32
	V144h-16v32h-48v-16h-16v16h-48v-8h-16v8h-48v-24h104v-16h-104v-32h-16v359.997H91.312l-37.656-37.651
	c-3.125-3.125-8.188-3.125-11.313,0L4.688,463.998H0v16h479.996v-16h-6.238c5.629-6.145,7.629-14.793,5.27-22.789
	c-2.355-7.991-8.726-14.171-16.792-16.28c4.066-10.027,0.926-21.531-7.676-28.098c-8.598-6.566-20.527-6.566-29.125,0
	c-8.602,6.566-11.742,18.07-7.676,28.098c-8.066,2.109-14.438,8.289-16.793,16.28c-2.359,7.996-0.359,16.645,5.27,22.789h-14.238
	V88.001h16c4.418,0,8-3.578,8-8v-8h55.999c4.418,0,8-3.578,8-8v-32C479.996,27.583,476.414,24.001,471.996,24.001z M44,264l12,16H24
	l12-16H44z M64,316.69l-11.313,11.309H27.313L16,316.69V296h48V316.69z M437.599,40.001l-21.602,14.402V40.001H437.599z
	 M335.998,16.001h32v32h-32V16.001z M119.999,41.603l21.602,14.398H98.398L119.999,41.603z M72,54.404L50.398,40.001h43.203
	L72,54.404z M146.397,40.001H189.6l-21.601,14.402L146.397,40.001z M215.999,41.603L237.6,56.001h-43.203L215.999,41.603z
	 M242.396,40.001H285.6l-21.602,14.402L242.396,40.001z M16,40.001h5.602l24,16H16V40.001z M290.396,56.001l24-16h5.602v16H290.396z
	 M375.997,437.601L361.6,415.999l14.397-21.598V437.601z M375.997,245.602L361.6,224l14.397-21.598V245.602z M359.998,250.402
	L374.396,272l-14.397,21.602V250.402z M359.998,197.602v-43.199L374.396,176L359.998,197.602z M359.998,346.401l14.397,21.598
	l-14.397,21.602V346.401z M375.997,341.554L361.6,319.999l14.397-21.597V341.554z M361.6,128.001l14.397-21.598v43.199
	L361.6,128.001z M359.998,101.603V88.001h9.055L359.998,101.603z M295.998,192v80h-48v-80H295.998z M231.999,192v68.8L213.6,242.617
	c-1.492-1.473-3.504-2.305-5.602-2.313h-24V192H231.999z M167.999,192v13.335h-48V192H167.999z M48,443.311l20.688,20.688H27.313
	L48,443.311z M119.999,463.998V221.336h48v27c0,4.422,3.582,8,8,8h28.711l29.688,29.355c1.492,1.473,3.503,2.305,5.601,2.309h56
	v175.998H119.999z M359.998,442.4l14.397,21.598h-14.397V442.4z M455.997,455.998c-4.418,0-8-3.578-8-8c0-4.418,3.582-8,8-8
	s8,3.582,8,8C463.997,452.42,460.415,455.998,455.997,455.998z M439.997,407.999c4.418,0,8,3.582,8,8c0,4.422-3.582,8-8,8
	s-8-3.578-8-8C431.997,411.581,435.579,407.999,439.997,407.999z M423.997,439.998c4.418,0,8,3.582,8,8c0,4.422-3.582,8-8,8
	s-8-3.578-8-8C415.997,443.58,419.579,439.998,423.997,439.998z M399.997,72.001h-63.999v-8h39.999c4.418,0,8-3.578,8-8v-40h16
	V72.001z M442.396,56.001l21.602-14.398v14.398H442.396z"/>
</svg>
