<?xml version="1.0" encoding="utf-8"?>
<!-- Generator: Adobe Illustrator 15.0.0, SVG Export Plug-In . SVG Version: 6.00 Build 0)  -->
<!DOCTYPE svg PUBLIC "-//W3C//DTD SVG 1.1//EN" "http://www.w3.org/Graphics/SVG/1.1/DTD/svg11.dtd">
<svg version="1.1" id="Layer_5" xmlns="http://www.w3.org/2000/svg" xmlns:xlink="http://www.w3.org/1999/xlink" x="0px" y="0px"
	 width="512px" height="512px" viewBox="0 0 512 512" enable-background="new 0 0 512 512" xml:space="preserve">
<g>
	<path fill="#50AAB2" d="M475.816,376l27.607-69.024l-14.855-5.943L458.584,376H456v-96h-16V152h-32v-32h-16v32h-16v-48h-16v48h-16
		v-32h-16v32h-32v96h-32v41.032c-18.856-23.152-44.592-40.016-73.8-47.744l-3.632-10.888c11.664-3.224,21.248-11.472,26.04-22.4H216
		c17.648,0,32-14.352,32-32v-40c8.824,0,16-7.176,16-16v-16c0-8.824-7.176-16-16-16h-1.392C238.952,41.92,199.544,8,152,8
		S65.048,41.92,57.392,88H56c-8.824,0-16,7.176-16,16v16c0,8.824,7.176,16,16,16v40c0,17.648,14.352,32,32,32h3.392
		c4.8,10.928,14.376,19.184,26.04,22.4l-3.632,10.888C51.28,257.775,8,313.664,8,378.736V384c0,34.112,19.552,63.688,48,78.288V504
		h240v-64h24.809c3.719,18.232,19.871,32,39.191,32s35.473-13.768,39.192-32h40.151c32.12,0,59.272-23,64.553-54.68l1.552-9.32
		H475.816z M376,376v-80h64v80H376z M312,168h112v112h-48v-32h-64V168z M360,264v112h-80V264H360z M264,317.408V376h-2.584
		l-29.992-74.977l-14.856,5.944L244.184,376H214.56l1.552,9.32c2.12,12.72,7.808,24.008,15.888,33V488h-40v-16
		c13.232,0,24-10.768,24-24s-10.768-24-24-24V258.616C222.504,268.313,248.304,289.24,264,317.408L264,317.408z M170.232,232
		l4.936,14.816L152,281.576l-23.176-34.76L133.768,232H170.232z M176,313.192l-14.096-17.624L176,274.424V313.192z M128,313.192
		v-38.769l14.096,21.145L128,313.192z M128,338.8l24-30l24,30v70.608c-2.512-0.889-5.192-1.408-8-1.408h-9.368
		c-6.408,0-12.44,2.496-16.976,7.032l-8.208,8.208L128,422.024V338.8z M144,435.313l8.968-8.969
		c1.512-1.512,3.528-2.344,5.664-2.344H168c4.408,0,8,3.592,8,8v8h16c4.408,0,8,3.592,8,8s-3.592,8-8,8h-48V435.313z M176,472v16
		h-48v-16H176z M216,192v-32c8.824,0,16,7.176,16,16S224.824,192,216,192z M232,148.448c-4.728-2.752-10.144-4.448-16-4.448v-8h16
		V148.448z M230.368,88H176V27.664C203.48,36.184,224.56,58.976,230.368,88z M160,24.4V88h-16V24.4c2.632-0.256,5.296-0.4,8-0.4
		S157.368,24.144,160,24.4z M128,27.664V88H73.632C79.44,58.976,100.52,36.184,128,27.664z M55.992,104H56h192v16H56L55.992,104z
		 M88,136v8c-5.856,0-11.272,1.696-16,4.448V136H88z M72,176c0-8.824,7.176-16,16-16v32C79.176,192,72,184.824,72,176z M104,192v-56
		h96v56c0,13.232-10.768,24-24,24h-48C114.768,216,104,205.232,104,192z M24,384v-5.264c0-55.681,35.712-103.744,88-120.232V418.48
		l-8.68-1.929C84.88,412.448,72,396.392,72,377.496V344H56v33.496c0,26.448,18.032,48.928,43.848,54.664L128,438.416V456H96
		C56.304,456,24,423.696,24,384z M72,468.592C79.64,470.76,87.672,472,96,472h16v16H72V468.592z M248,488v-56.688
		c9.464,5.439,20.4,8.544,32,8.663V488H248z M360,456c-13.232,0-24-10.768-24-24c0-4.408,3.592-8,8-8h32c4.408,0,8,3.592,8,8
		C384,445.232,373.232,456,360,456z M439.336,424H398.52c-3.312-9.288-12.111-16-22.527-16h-32c-10.416,0-19.217,6.712-22.528,16
		h-40.815c-20.992,0-39.168-13-46.28-32H485.6C478.504,411,460.336,424,439.336,424L439.336,424z"/>
	<path fill="#50AAB2" d="M392,184h16v16h-16V184z"/>
	<path fill="#50AAB2" d="M360,184h16v16h-16V184z"/>
	<path fill="#50AAB2" d="M328,184h16v16h-16V184z"/>
	<path fill="#50AAB2" d="M392,216h16v16h-16V216z"/>
	<path fill="#50AAB2" d="M328,216h16v16h-16V216z"/>
	<path fill="#50AAB2" d="M360,216h16v16h-16V216z"/>
	<path fill="#50AAB2" d="M392,248h16v16h-16V248z"/>
	<path fill="#50AAB2" d="M296,280h16v80h-16V280z"/>
	<path fill="#50AAB2" d="M328,280h16v80h-16V280z"/>
	<path fill="#50AAB2" d="M392,312h32v16h-32V312z"/>
	<path fill="#50AAB2" d="M392,344h32v16h-32V344z"/>
</g>
</svg>
