<?xml version="1.0" encoding="utf-8"?>
<!-- Generator: Adobe Illustrator 23.0.0, SVG Export Plug-In . SVG Version: 6.00 Build 0)  -->
<svg version="1.1" id="Layer_1" xmlns="http://www.w3.org/2000/svg" xmlns:xlink="http://www.w3.org/1999/xlink" x="0px" y="0px"
	 viewBox="0 0 438 108" style="enable-background:new 0 0 438 108;" xml:space="preserve">
<style type="text/css">
	.st0{fill:none;stroke:#000000;stroke-width:8;stroke-miterlimit:10;}
	.st1{fill:none;stroke:#50AAB2;stroke-width:8;stroke-miterlimit:10;}
</style>
<g>
	<g>
		<path d="M126.19,22.74v62.04h-8.01V22.74H126.19z"/>
		<path d="M187.26,84.78h-8.01l-32.21-49.02v49.02h-8.01V22.74h8.01l32.21,49.1v-49.1h8.01V84.78z"/>
		<path d="M238.13,22.74v6.51h-17.51v55.53h-8.01V29.26h-17.51v-6.51H238.13z"/>
		<path d="M290,26c4.61,2.7,8.23,6.47,10.87,11.31s3.96,10.31,3.96,16.41c0,6.1-1.32,11.57-3.96,16.41S294.6,78.74,290,81.44
			c-4.61,2.7-9.78,4.05-15.53,4.05c-5.75,0-10.96-1.35-15.62-4.05c-4.66-2.7-8.32-6.47-10.96-11.31
			c-2.64-4.84-3.96-10.31-3.96-16.41c0-6.1,1.32-11.57,3.96-16.41c2.64-4.84,6.29-8.61,10.96-11.31c4.66-2.7,9.87-4.05,15.62-4.05
			C280.22,21.95,285.39,23.3,290,26z M262.98,32.38c-3.37,1.97-6.01,4.78-7.92,8.45c-1.91,3.67-2.86,7.96-2.86,12.89
			c0,4.87,0.95,9.15,2.86,12.85c1.91,3.7,4.55,6.53,7.92,8.49c3.37,1.97,7.2,2.95,11.48,2.95c4.22,0,8.02-1,11.4-2.99
			c3.37-1.99,6.01-4.83,7.92-8.49c1.91-3.67,2.86-7.93,2.86-12.8c0-4.93-0.96-9.23-2.86-12.89c-1.91-3.67-4.55-6.48-7.92-8.45
			c-3.37-1.96-7.17-2.95-11.4-2.95C270.18,29.43,266.36,30.41,262.98,32.38z"/>
		<path d="M348.56,84.78l-16.19-25.34h-8.71v25.34h-8.01V22.74h20.42c7.04,0,12.32,1.69,15.84,5.06c3.52,3.37,5.28,7.85,5.28,13.42
			c0,5.05-1.41,9.11-4.22,12.19c-2.82,3.08-6.89,5-12.23,5.76l16.9,25.61H348.56z M323.66,53.63h11.7c9.09,0,13.64-3.99,13.64-11.97
			c0-7.98-4.55-11.97-13.64-11.97h-11.7V53.63z"/>
		<path d="M374.96,22.74v62.04h-8.01V22.74H374.96z"/>
		<path d="M424.15,70.44h-27.28l-5.19,14.34h-8.62l22.97-60.9h9.06l22.88,60.9h-8.62L424.15,70.44z M421.87,64.19l-11.35-31.33
			l-11.35,31.33H421.87z"/>
	</g>
	<rect x="4" y="4" class="st0" width="56" height="100"/>
	<rect x="33" y="27" class="st1" width="54" height="54"/>
</g>
</svg>
