<?xml version="1.0" encoding="utf-8"?>
<!-- Generator: Adobe Illustrator 15.0.0, SVG Export Plug-In . SVG Version: 6.00 Build 0)  -->
<!DOCTYPE svg PUBLIC "-//W3C//DTD SVG 1.1//EN" "http://www.w3.org/Graphics/SVG/1.1/DTD/svg11.dtd">
<svg version="1.1" id="Capa_1" xmlns="http://www.w3.org/2000/svg" xmlns:xlink="http://www.w3.org/1999/xlink" x="0px" y="0px"
	 width="610px" height="595px" viewBox="0 0 610 595" enable-background="new 0 0 610 595" xml:space="preserve">
<g>
	<g>
		<path fill="#50AAB2" d="M443.37,164.939c-2.16-2.162-5.158-3.405-8.215-3.405s-6.055,1.243-8.216,3.405
			c-2.162,2.162-3.405,5.148-3.405,8.216c0,3.056,1.242,6.055,3.405,8.216c2.162,2.162,5.159,3.405,8.216,3.405
			s6.055-1.244,8.215-3.405c2.162-2.161,3.406-5.16,3.406-8.216C446.776,170.099,445.533,167.101,443.37,164.939z"/>
	</g>
</g>
<g>
	<g>
		<path fill="#50AAB2" d="M181.816,327.716H88.848c-6.417,0-11.621,5.202-11.621,11.621v92.968c0,6.419,5.204,11.621,11.621,11.621
			h92.968c6.417,0,11.621-5.202,11.621-11.621v-92.968C193.437,332.918,188.234,327.716,181.816,327.716z M170.195,420.684h-69.726
			v-69.727h69.726V420.684z"/>
	</g>
</g>
<g>
	<g>
		<path fill="#50AAB2" d="M595.325,243.766c-4.343-1.8-9.342-0.803-12.665,2.518L464.244,364.7
			c-0.001,0.003-0.004,0.004-0.006,0.006c-0.002,0.003-0.004,0.004-0.005,0.006l-138.04,138.04
			c-0.002,0.002-0.003,0.004-0.006,0.006c-0.002,0.002-0.003,0.004-0.006,0.006l-72.397,72.398
			c-3.322,3.323-4.317,8.322-2.52,12.664c1.799,4.343,6.036,7.174,10.737,7.174h328.876c6.417,0,11.621-5.203,11.621-11.621V254.502
			C602.499,249.803,599.668,245.565,595.325,243.766z M579.257,571.758H290.058l44.347-44.347l11.094,11.093
			c2.27,2.27,5.243,3.404,8.218,3.404c2.973,0,5.947-1.135,8.217-3.404c4.538-4.538,4.538-11.896,0-16.436l-11.094-11.094
			l29.582-29.582l11.093,11.092c2.271,2.27,5.243,3.404,8.218,3.404c2.974,0,5.947-1.136,8.217-3.404
			c4.538-4.538,4.538-11.896,0-16.435l-11.094-11.093l29.583-29.583l11.094,11.094c2.27,2.27,5.243,3.403,8.217,3.403
			s5.948-1.134,8.218-3.403c4.538-4.538,4.538-11.896,0-16.436l-11.094-11.094l29.581-29.581l11.094,11.093
			c2.27,2.27,5.243,3.404,8.218,3.404c2.974,0,5.947-1.135,8.217-3.404c4.538-4.538,4.538-11.896,0-16.436l-11.094-11.094
			l29.583-29.582l11.093,11.092c2.27,2.271,5.243,3.404,8.217,3.404s5.947-1.136,8.217-3.404c4.538-4.537,4.538-11.896,0-16.435
			l-11.093-11.093l44.352-44.345V571.758z"/>
	</g>
</g>
<g>
	<g>
		<path fill="#50AAB2" d="M537.22,384.045c-4.343-1.8-9.342-0.804-12.665,2.519L394.063,517.057
			c-3.323,3.323-4.318,8.321-2.52,12.664s6.036,7.174,10.736,7.174h130.492c6.417,0,11.621-5.202,11.621-11.621V394.781
			C544.394,390.082,541.563,385.844,537.22,384.045z M521.151,513.652h-90.814l90.814-90.815V513.652z"/>
	</g>
</g>
<g>
	<g>
		<path fill="#50AAB2" d="M545.625,173.457c-3.199-3.198-7.961-4.251-12.214-2.695l-79.35,29.059
			c-1.586,0.581-3.026,1.5-4.222,2.695l-22.312,22.312L281.84,79.137c-2.18-2.179-5.135-3.404-8.217-3.404s-6.039,1.225-8.217,3.404
			L90.04,254.502H47.178L273.623,28.057L397.886,152.32c4.539,4.538,11.896,4.538,16.436,0c4.538-4.538,4.538-11.896,0-16.436
			L281.841,3.404c-4.539-4.538-11.895-4.538-16.436,0L10.904,257.905c-3.322,3.324-4.317,8.322-2.52,12.665
			c1.799,4.344,6.036,7.175,10.737,7.175h11.621v305.634c0,6.418,5.204,11.621,11.621,11.621h184.759
			c6.417,0,11.621-5.203,11.621-11.621s-5.204-11.621-11.621-11.621H53.984V277.745h40.869c3.082,0,6.038-1.225,8.217-3.404
			l170.552-170.552l137.47,137.471L238.759,413.595V309.122h81.348c6.416,0,11.621-5.203,11.621-11.622s-5.205-11.621-11.621-11.621
			h-92.969c-6.417,0-11.621,5.203-11.621,11.621v134.804c0,1.356,0.244,2.651,0.67,3.861l-10.411,10.411
			c-18.396,18.396-18.396,48.329,0,66.726c9.199,9.199,21.279,13.799,33.363,13.798c12.082,0,24.166-4.6,33.363-13.797
			l98.002-98.003c4.538-4.538,4.538-11.896,0-16.435s-11.894-4.538-16.436,0l-74.25,74.25l-33.855-33.856l212.325-212.325
			l33.856,33.856l-81.133,81.134c-4.538,4.538-4.538,11.896,0,16.435c4.539,4.538,11.896,4.538,16.436,0l89.117-89.118
			c1.193-1.195,2.114-2.636,2.694-4.221l29.06-79.35C549.875,181.422,548.824,176.657,545.625,173.457z M263.387,489.549
			l-7.319,7.319c-4.522,4.521-10.532,7.012-16.927,7.012s-12.407-2.49-16.927-7.012c-4.523-4.521-7.012-10.533-7.012-16.927
			c0-6.395,2.488-12.407,7.011-16.929l7.319-7.319L263.387,489.549z M503.819,239.593l-24.332-24.332l38.394-14.061L503.819,239.593
			z"/>
	</g>
</g>
<g>
	<g>
		<path fill="#50AAB2" d="M398.769,370.597c-2.16-2.161-5.159-3.404-8.215-3.404s-6.055,1.243-8.216,3.404
			c-2.162,2.174-3.405,5.16-3.405,8.217c0,3.067,1.242,6.055,3.405,8.228c2.161,2.161,5.148,3.394,8.216,3.394
			c3.056,0,6.055-1.232,8.215-3.394c2.161-2.173,3.406-5.172,3.406-8.228C402.175,375.757,400.932,372.771,398.769,370.597z"/>
	</g>
</g>
<g>
	<g>
		<path fill="#50AAB2" d="M273.623,175.479c-24.35,0-44.16,19.811-44.16,44.16s19.811,44.16,44.16,44.16s44.161-19.81,44.161-44.16
			S297.972,175.479,273.623,175.479z M273.623,240.557c-11.534,0-20.918-9.383-20.918-20.917c0-11.534,9.384-20.918,20.918-20.918
			c11.534,0,20.918,9.384,20.918,20.918C294.541,231.173,285.156,240.557,273.623,240.557z"/>
	</g>
</g>
</svg>
